<?xml version="1.0" encoding="UTF-8" standalone="no"?>
<!-- Created with Inkscape (http://www.inkscape.org/) -->

<svg
   xmlns:dc="http://purl.org/dc/elements/1.1/"
   xmlns:cc="http://creativecommons.org/ns#"
   xmlns:rdf="http://www.w3.org/1999/02/22-rdf-syntax-ns#"
   xmlns:svg="http://www.w3.org/2000/svg"
   xmlns="http://www.w3.org/2000/svg"
   xmlns:sodipodi="http://sodipodi.sourceforge.net/DTD/sodipodi-0.dtd"
   xmlns:inkscape="http://www.inkscape.org/namespaces/inkscape"
   id="svg3039"
   version="1.1"
   inkscape:version="0.48.1 r9760"
   width="1350"
   height="1062.9921"
   xml:space="preserve"
   sodipodi:docname="CoreVertUsageXP279.pdf"><metadata
     id="metadata3045"><rdf:RDF><cc:Work
         rdf:about=""><dc:format>image/svg+xml</dc:format><dc:type
           rdf:resource="http://purl.org/dc/dcmitype/StillImage" /><dc:title></dc:title></cc:Work></rdf:RDF></metadata><defs
     id="defs3043" /><sodipodi:namedview
     pagecolor="#ffffff"
     bordercolor="#666666"
     borderopacity="1"
     objecttolerance="10"
     gridtolerance="10"
     guidetolerance="10"
     inkscape:pageopacity="0"
     inkscape:pageshadow="2"
     inkscape:window-width="1920"
     inkscape:window-height="1123"
     id="namedview3041"
     showgrid="false"
     inkscape:zoom="0.55503707"
     inkscape:cx="156.14999"
     inkscape:cy="745.35442"
     inkscape:window-x="2560"
     inkscape:window-y="24"
     inkscape:window-maximized="1"
     inkscape:current-layer="g3049" /><g
     id="g3047"
     inkscape:groupmode="layer"
     inkscape:label="CoreVertUsageXP279"
     transform="matrix(1.25,0,0,-1.25,0,1062.9921)"><g
       id="g3049"><path
         d="m 52.93,803.191 793.699,0 0,-793.703 -793.699,0 0,793.703 z"
         style="fill:#ffffff;fill-opacity:1;fill-rule:nonzero;stroke:none"
         id="path3051" /><g
         id="g3053"
         transform="matrix(1,0,0,-1,0,850.39368)"><path
           d="m 84.77,259.25 39.691,0 0,562.801 -39.691,0 0,-562.801 z"
           style="fill:#0000ff;fill-opacity:1;fill-rule:nonzero;stroke:#000000;stroke-opacity:1;stroke-width:0.0141732;stroke-linecap:butt;stroke-linejoin:miter;stroke-miterlimit:4;stroke-dasharray:none"
           id="path3055" /></g><g
         id="g3057"
         transform="matrix(1,0,0,-1,0,850.39368)"><path
           d="m 84.77,640.699 39.691,0 0,181.352 -39.691,0 0,-181.352 z"
           style="fill:#000080;fill-opacity:1;fill-rule:nonzero;stroke:#000000;stroke-opacity:1;stroke-width:0.0141732;stroke-linecap:butt;stroke-linejoin:miter;stroke-miterlimit:4;stroke-dasharray:none"
           id="path3059" /></g><g
         id="g3065"
         transform="matrix(1,0,0,-1,0,850.39368)"><path
           d="m 84.77,34.539 39.691,0 0,224.711 -39.691,0 0,-224.711 z"
           style="fill:#ff0000;fill-opacity:1;fill-rule:nonzero;stroke:#000000;stroke-opacity:1;stroke-width:0.0141732;stroke-linecap:butt;stroke-linejoin:miter;stroke-miterlimit:4;stroke-dasharray:none"
           id="path3067" /></g><g
         id="g3073"
         transform="matrix(1,0,0,-1,0,850.39368)"><path
           d="m 84.77,28.352 39.691,0 0,6.188 -39.691,0 0,-6.188 z"
           style="fill:#808080;fill-opacity:1;fill-rule:nonzero;stroke:#000000;stroke-opacity:1;stroke-width:0.0141732;stroke-linecap:butt;stroke-linejoin:miter;stroke-miterlimit:4;stroke-dasharray:none"
           id="path3075" /></g><g
         id="g3085"
         transform="matrix(1,0,0,-1,0,850.39368)"><path
           d="m 150.922,310.309 39.688,0 0,511.742 -39.688,0 0,-511.742 z"
           style="fill:#0000ff;fill-opacity:1;fill-rule:nonzero;stroke:#000000;stroke-opacity:1;stroke-width:0.0141732;stroke-linecap:butt;stroke-linejoin:miter;stroke-miterlimit:4;stroke-dasharray:none"
           id="path3087" /></g><g
         id="g3089"
         transform="matrix(1,0,0,-1,0,850.39368)"><path
           d="m 150.922,656.82 39.688,0 0,165.23 -39.688,0 0,-165.23 z"
           style="fill:#000080;fill-opacity:1;fill-rule:nonzero;stroke:#000000;stroke-opacity:1;stroke-width:0.0141732;stroke-linecap:butt;stroke-linejoin:miter;stroke-miterlimit:4;stroke-dasharray:none"
           id="path3091" /></g><g
         id="g3097"
         transform="matrix(1,0,0,-1,0,850.39368)"><path
           d="m 150.922,42.98 39.688,0 0,267.328 -39.688,0 0,-267.328 z"
           style="fill:#ff0000;fill-opacity:1;fill-rule:nonzero;stroke:#000000;stroke-opacity:1;stroke-width:0.0141732;stroke-linecap:butt;stroke-linejoin:miter;stroke-miterlimit:4;stroke-dasharray:none"
           id="path3099" /></g><g
         id="g3105"
         transform="matrix(1,0,0,-1,0,850.39368)"><path
           d="m 150.922,28.352 39.688,0 0,14.637 -39.688,0 0,-14.637 z"
           style="fill:#808080;fill-opacity:1;fill-rule:nonzero;stroke:#000000;stroke-opacity:1;stroke-width:0.0141732;stroke-linecap:butt;stroke-linejoin:miter;stroke-miterlimit:4;stroke-dasharray:none"
           id="path3107" /></g><g
         id="g3117"
         transform="matrix(1,0,0,-1,0,850.39368)"><path
           d="m 217.059,313.309 39.691,0 0,508.742 -39.691,0 0,-508.742 z"
           style="fill:#0000ff;fill-opacity:1;fill-rule:nonzero;stroke:#000000;stroke-opacity:1;stroke-width:0.0141732;stroke-linecap:butt;stroke-linejoin:miter;stroke-miterlimit:4;stroke-dasharray:none"
           id="path3119" /></g><g
         id="g3121"
         transform="matrix(1,0,0,-1,0,850.39368)"><path
           d="m 217.059,660.918 39.691,0 0,161.121 -39.691,0 0,-161.121 z"
           style="fill:#000080;fill-opacity:1;fill-rule:nonzero;stroke:#000000;stroke-opacity:1;stroke-width:0.0141732;stroke-linecap:butt;stroke-linejoin:miter;stroke-miterlimit:4;stroke-dasharray:none"
           id="path3123" /></g><g
         id="g3129"
         transform="matrix(1,0,0,-1,0,850.39368)"><path
           d="m 217.059,38.5 39.691,0 0,274.809 -39.691,0 0,-274.809 z"
           style="fill:#ff0000;fill-opacity:1;fill-rule:nonzero;stroke:#000000;stroke-opacity:1;stroke-width:0.0141732;stroke-linecap:butt;stroke-linejoin:miter;stroke-miterlimit:4;stroke-dasharray:none"
           id="path3131" /></g><g
         id="g3137"
         transform="matrix(1,0,0,-1,0,850.39368)"><path
           d="m 217.059,28.352 39.691,0 0,10.148 -39.691,0 0,-10.148 z"
           style="fill:#808080;fill-opacity:1;fill-rule:nonzero;stroke:#000000;stroke-opacity:1;stroke-width:0.0141732;stroke-linecap:butt;stroke-linejoin:miter;stroke-miterlimit:4;stroke-dasharray:none"
           id="path3139" /></g><g
         id="g3149"
         transform="matrix(1,0,0,-1,0,850.39368)"><path
           d="m 283.199,216.102 39.691,0 0,605.949 -39.691,0 0,-605.949 z"
           style="fill:#0000ff;fill-opacity:1;fill-rule:nonzero;stroke:#000000;stroke-opacity:1;stroke-width:0.0141732;stroke-linecap:butt;stroke-linejoin:miter;stroke-miterlimit:4;stroke-dasharray:none"
           id="path3151" /></g><g
         id="g3153"
         transform="matrix(1,0,0,-1,0,850.39368)"><path
           d="m 283.199,621 39.691,0 0,201.051 -39.691,0 0,-201.051 z"
           style="fill:#000080;fill-opacity:1;fill-rule:nonzero;stroke:#000000;stroke-opacity:1;stroke-width:0.0141732;stroke-linecap:butt;stroke-linejoin:miter;stroke-miterlimit:4;stroke-dasharray:none"
           id="path3155" /></g><g
         id="g3161"
         transform="matrix(1,0,0,-1,0,850.39368)"><path
           d="m 283.199,50.469 39.691,0 0,165.621 -39.691,0 0,-165.621 z"
           style="fill:#ff0000;fill-opacity:1;fill-rule:nonzero;stroke:#000000;stroke-opacity:1;stroke-width:0.0141732;stroke-linecap:butt;stroke-linejoin:miter;stroke-miterlimit:4;stroke-dasharray:none"
           id="path3163" /></g><g
         id="g3169"
         transform="matrix(1,0,0,-1,0,850.39368)"><path
           d="m 283.199,28.352 39.691,0 0,22.129 -39.691,0 0,-22.129 z"
           style="fill:#808080;fill-opacity:1;fill-rule:nonzero;stroke:#000000;stroke-opacity:1;stroke-width:0.0141732;stroke-linecap:butt;stroke-linejoin:miter;stroke-miterlimit:4;stroke-dasharray:none"
           id="path3171" /></g><g
         id="g3181"
         transform="matrix(1,0,0,-1,0,850.39368)"><path
           d="m 349.34,232.25 39.691,0 0,589.801 -39.691,0 0,-589.801 z"
           style="fill:#0000ff;fill-opacity:1;fill-rule:nonzero;stroke:#000000;stroke-opacity:1;stroke-width:0.0141732;stroke-linecap:butt;stroke-linejoin:miter;stroke-miterlimit:4;stroke-dasharray:none"
           id="path3183" /></g><g
         id="g3185"
         transform="matrix(1,0,0,-1,0,850.39368)"><path
           d="m 349.34,635.109 39.691,0 0,186.941 -39.691,0 0,-186.941 z"
           style="fill:#000080;fill-opacity:1;fill-rule:nonzero;stroke:#000000;stroke-opacity:1;stroke-width:0.0141732;stroke-linecap:butt;stroke-linejoin:miter;stroke-miterlimit:4;stroke-dasharray:none"
           id="path3187" /></g><g
         id="g3193"
         transform="matrix(1,0,0,-1,0,850.39368)"><path
           d="m 349.34,35.789 39.691,0 0,196.461 -39.691,0 0,-196.461 z"
           style="fill:#ff0000;fill-opacity:1;fill-rule:nonzero;stroke:#000000;stroke-opacity:1;stroke-width:0.0141732;stroke-linecap:butt;stroke-linejoin:miter;stroke-miterlimit:4;stroke-dasharray:none"
           id="path3195" /></g><g
         id="g3201"
         transform="matrix(1,0,0,-1,0,850.39368)"><path
           d="m 349.34,28.352 39.691,0 0,7.438 -39.691,0 0,-7.438 z"
           style="fill:#808080;fill-opacity:1;fill-rule:nonzero;stroke:#000000;stroke-opacity:1;stroke-width:0.0141732;stroke-linecap:butt;stroke-linejoin:miter;stroke-miterlimit:4;stroke-dasharray:none"
           id="path3203" /></g><g
         id="g3213"
         transform="matrix(1,0,0,-1,0,850.39368)"><path
           d="m 415.48,182.488 39.691,0 0,639.562 -39.691,0 0,-639.562 z"
           style="fill:#0000ff;fill-opacity:1;fill-rule:nonzero;stroke:#000000;stroke-opacity:1;stroke-width:0.0141732;stroke-linecap:butt;stroke-linejoin:miter;stroke-miterlimit:4;stroke-dasharray:none"
           id="path3215" /></g><g
         id="g3217"
         transform="matrix(1,0,0,-1,0,850.39368)"><path
           d="m 415.48,626.781 39.691,0 0,195.27 -39.691,0 0,-195.27 z"
           style="fill:#000080;fill-opacity:1;fill-rule:nonzero;stroke:#000000;stroke-opacity:1;stroke-width:0.0141732;stroke-linecap:butt;stroke-linejoin:miter;stroke-miterlimit:4;stroke-dasharray:none"
           id="path3219" /></g><g
         id="g3225"
         transform="matrix(1,0,0,-1,0,850.39368)"><path
           d="m 415.48,35.27 39.691,0 0,147.219 -39.691,0 0,-147.219 z"
           style="fill:#ff0000;fill-opacity:1;fill-rule:nonzero;stroke:#000000;stroke-opacity:1;stroke-width:0.0141732;stroke-linecap:butt;stroke-linejoin:miter;stroke-miterlimit:4;stroke-dasharray:none"
           id="path3227" /></g><g
         id="g3233"
         transform="matrix(1,0,0,-1,0,850.39368)"><path
           d="m 415.48,28.352 39.691,0 0,6.918 -39.691,0 0,-6.918 z"
           style="fill:#808080;fill-opacity:1;fill-rule:nonzero;stroke:#000000;stroke-opacity:1;stroke-width:0.0141732;stroke-linecap:butt;stroke-linejoin:miter;stroke-miterlimit:4;stroke-dasharray:none"
           id="path3235" /></g><g
         id="g3245"
         transform="matrix(1,0,0,-1,0,850.39368)"><path
           d="m 481.629,191.828 39.691,0 0,630.211 -39.691,0 0,-630.211 z"
           style="fill:#0000ff;fill-opacity:1;fill-rule:nonzero;stroke:#000000;stroke-opacity:1;stroke-width:0.0141732;stroke-linecap:butt;stroke-linejoin:miter;stroke-miterlimit:4;stroke-dasharray:none"
           id="path3247" /></g><g
         id="g3249"
         transform="matrix(1,0,0,-1,0,850.39368)"><path
           d="m 481.629,626.609 39.691,0 0,195.43 -39.691,0 0,-195.43 z"
           style="fill:#000080;fill-opacity:1;fill-rule:nonzero;stroke:#000000;stroke-opacity:1;stroke-width:0.0141732;stroke-linecap:butt;stroke-linejoin:miter;stroke-miterlimit:4;stroke-dasharray:none"
           id="path3251" /></g><g
         id="g3257"
         transform="matrix(1,0,0,-1,0,850.39368)"><path
           d="m 481.629,35.07 39.691,0 0,156.77 -39.691,0 0,-156.77 z"
           style="fill:#ff0000;fill-opacity:1;fill-rule:nonzero;stroke:#000000;stroke-opacity:1;stroke-width:0.0141732;stroke-linecap:butt;stroke-linejoin:miter;stroke-miterlimit:4;stroke-dasharray:none"
           id="path3259" /></g><g
         id="g3265"
         transform="matrix(1,0,0,-1,0,850.39368)"><path
           d="m 481.629,28.352 39.691,0 0,6.719 -39.691,0 0,-6.719 z"
           style="fill:#808080;fill-opacity:1;fill-rule:nonzero;stroke:#000000;stroke-opacity:1;stroke-width:0.0141732;stroke-linecap:butt;stroke-linejoin:miter;stroke-miterlimit:4;stroke-dasharray:none"
           id="path3267" /></g><g
         id="g3277"
         transform="matrix(1,0,0,-1,0,850.39368)"><path
           d="m 547.77,195.641 39.691,0 0,626.41 -39.691,0 0,-626.41 z"
           style="fill:#0000ff;fill-opacity:1;fill-rule:nonzero;stroke:#000000;stroke-opacity:1;stroke-width:0.0141732;stroke-linecap:butt;stroke-linejoin:miter;stroke-miterlimit:4;stroke-dasharray:none"
           id="path3279" /></g><g
         id="g3281"
         transform="matrix(1,0,0,-1,0,850.39368)"><path
           d="m 547.77,628.59 39.691,0 0,193.449 -39.691,0 0,-193.449 z"
           style="fill:#000080;fill-opacity:1;fill-rule:nonzero;stroke:#000000;stroke-opacity:1;stroke-width:0.0141732;stroke-linecap:butt;stroke-linejoin:miter;stroke-miterlimit:4;stroke-dasharray:none"
           id="path3283" /></g><g
         id="g3289"
         transform="matrix(1,0,0,-1,0,850.39368)"><path
           d="m 547.77,38.66 39.691,0 0,156.98 -39.691,0 0,-156.98 z"
           style="fill:#ff0000;fill-opacity:1;fill-rule:nonzero;stroke:#000000;stroke-opacity:1;stroke-width:0.0141732;stroke-linecap:butt;stroke-linejoin:miter;stroke-miterlimit:4;stroke-dasharray:none"
           id="path3291" /></g><g
         id="g3297"
         transform="matrix(1,0,0,-1,0,850.39368)"><path
           d="m 547.77,28.352 39.691,0 0,10.309 -39.691,0 0,-10.309 z"
           style="fill:#808080;fill-opacity:1;fill-rule:nonzero;stroke:#000000;stroke-opacity:1;stroke-width:0.0141732;stroke-linecap:butt;stroke-linejoin:miter;stroke-miterlimit:4;stroke-dasharray:none"
           id="path3299" /></g><g
         id="g3309"
         transform="matrix(1,0,0,-1,0,850.39368)"><path
           d="m 613.91,286.371 39.688,0 0,535.68 -39.688,0 0,-535.68 z"
           style="fill:#0000ff;fill-opacity:1;fill-rule:nonzero;stroke:#000000;stroke-opacity:1;stroke-width:0.0141732;stroke-linecap:butt;stroke-linejoin:miter;stroke-miterlimit:4;stroke-dasharray:none"
           id="path3311" /></g><g
         id="g3313"
         transform="matrix(1,0,0,-1,0,850.39368)"><path
           d="m 613.91,654 39.688,0 0,168.051 -39.688,0 0,-168.051 z"
           style="fill:#000080;fill-opacity:1;fill-rule:nonzero;stroke:#000000;stroke-opacity:1;stroke-width:0.0141732;stroke-linecap:butt;stroke-linejoin:miter;stroke-miterlimit:4;stroke-dasharray:none"
           id="path3315" /></g><g
         id="g3321"
         transform="matrix(1,0,0,-1,0,850.39368)"><path
           d="m 613.91,38.602 39.688,0 0,247.758 -39.688,0 0,-247.758 z"
           style="fill:#ff0000;fill-opacity:1;fill-rule:nonzero;stroke:#000000;stroke-opacity:1;stroke-width:0.0141732;stroke-linecap:butt;stroke-linejoin:miter;stroke-miterlimit:4;stroke-dasharray:none"
           id="path3323" /></g><g
         id="g3329"
         transform="matrix(1,0,0,-1,0,850.39368)"><path
           d="m 613.91,28.352 39.688,0 0,10.258 -39.688,0 0,-10.258 z"
           style="fill:#808080;fill-opacity:1;fill-rule:nonzero;stroke:#000000;stroke-opacity:1;stroke-width:0.0141732;stroke-linecap:butt;stroke-linejoin:miter;stroke-miterlimit:4;stroke-dasharray:none"
           id="path3331" /></g><g
         id="g3341"
         transform="matrix(1,0,0,-1,0,850.39368)"><path
           d="m 680.051,209.668 39.688,0 0,612.383 -39.688,0 0,-612.383 z"
           style="fill:#0000ff;fill-opacity:1;fill-rule:nonzero;stroke:#000000;stroke-opacity:1;stroke-width:0.0141732;stroke-linecap:butt;stroke-linejoin:miter;stroke-miterlimit:4;stroke-dasharray:none"
           id="path3343" /></g><g
         id="g3345"
         transform="matrix(1,0,0,-1,0,850.39368)"><path
           d="m 680.051,632.34 39.688,0 0,189.711 -39.688,0 0,-189.711 z"
           style="fill:#000080;fill-opacity:1;fill-rule:nonzero;stroke:#000000;stroke-opacity:1;stroke-width:0.0141732;stroke-linecap:butt;stroke-linejoin:miter;stroke-miterlimit:4;stroke-dasharray:none"
           id="path3347" /></g><g
         id="g3353"
         transform="matrix(1,0,0,-1,0,850.39368)"><path
           d="m 680.051,37.34 39.688,0 0,172.32 -39.688,0 0,-172.32 z"
           style="fill:#ff0000;fill-opacity:1;fill-rule:nonzero;stroke:#000000;stroke-opacity:1;stroke-width:0.0141732;stroke-linecap:butt;stroke-linejoin:miter;stroke-miterlimit:4;stroke-dasharray:none"
           id="path3355" /></g><g
         id="g3361"
         transform="matrix(1,0,0,-1,0,850.39368)"><path
           d="m 680.051,28.352 39.688,0 0,9 -39.688,0 0,-9 z"
           style="fill:#808080;fill-opacity:1;fill-rule:nonzero;stroke:#000000;stroke-opacity:1;stroke-width:0.0141732;stroke-linecap:butt;stroke-linejoin:miter;stroke-miterlimit:4;stroke-dasharray:none"
           id="path3363" /></g><g
         id="g3373"
         transform="matrix(1,0,0,-1,0,850.39368)"><path
           d="m 746.188,218.391 39.691,0 0,603.66 -39.691,0 0,-603.66 z"
           style="fill:#0000ff;fill-opacity:1;fill-rule:nonzero;stroke:#000000;stroke-opacity:1;stroke-width:0.0141732;stroke-linecap:butt;stroke-linejoin:miter;stroke-miterlimit:4;stroke-dasharray:none"
           id="path3375" /></g><g
         id="g3377"
         transform="matrix(1,0,0,-1,0,850.39368)"><path
           d="m 746.188,638.59 39.691,0 0,183.461 -39.691,0 0,-183.461 z"
           style="fill:#000080;fill-opacity:1;fill-rule:nonzero;stroke:#000000;stroke-opacity:1;stroke-width:0.0141732;stroke-linecap:butt;stroke-linejoin:miter;stroke-miterlimit:4;stroke-dasharray:none"
           id="path3379" /></g><g
         id="g3385"
         transform="matrix(1,0,0,-1,0,850.39368)"><path
           d="m 746.188,37.859 39.691,0 0,180.531 -39.691,0 0,-180.531 z"
           style="fill:#ff0000;fill-opacity:1;fill-rule:nonzero;stroke:#000000;stroke-opacity:1;stroke-width:0.0141732;stroke-linecap:butt;stroke-linejoin:miter;stroke-miterlimit:4;stroke-dasharray:none"
           id="path3387" /></g><g
         id="g3393"
         transform="matrix(1,0,0,-1,0,850.39368)"><path
           d="m 746.188,28.352 39.691,0 0,9.52 -39.691,0 0,-9.52 z"
           style="fill:#808080;fill-opacity:1;fill-rule:nonzero;stroke:#000000;stroke-opacity:1;stroke-width:0.0141732;stroke-linecap:butt;stroke-linejoin:miter;stroke-miterlimit:4;stroke-dasharray:none"
           id="path3395" /></g><g
         id="g3405"
         transform="matrix(1,0,0,-1,0,850.39368)"><path
           d="m 812.328,236.691 39.691,0 0,585.359 -39.691,0 0,-585.359 z"
           style="fill:#0000ff;fill-opacity:1;fill-rule:nonzero;stroke:#000000;stroke-opacity:1;stroke-width:0.0141732;stroke-linecap:butt;stroke-linejoin:miter;stroke-miterlimit:4;stroke-dasharray:none"
           id="path3407" /></g><g
         id="g3409"
         transform="matrix(1,0,0,-1,0,850.39368)"><path
           d="m 812.328,631.102 39.691,0 0,190.949 -39.691,0 0,-190.949 z"
           style="fill:#000080;fill-opacity:1;fill-rule:nonzero;stroke:#000000;stroke-opacity:1;stroke-width:0.0141732;stroke-linecap:butt;stroke-linejoin:miter;stroke-miterlimit:4;stroke-dasharray:none"
           id="path3411" /></g><g
         id="g3417"
         transform="matrix(1,0,0,-1,0,850.39368)"><path
           d="m 812.328,38.09 39.691,0 0,198.602 -39.691,0 0,-198.602 z"
           style="fill:#ff0000;fill-opacity:1;fill-rule:nonzero;stroke:#000000;stroke-opacity:1;stroke-width:0.0141732;stroke-linecap:butt;stroke-linejoin:miter;stroke-miterlimit:4;stroke-dasharray:none"
           id="path3419" /></g><g
         id="g3425"
         transform="matrix(1,0,0,-1,0,850.39368)"><path
           d="m 812.328,28.352 39.691,0 0,9.738 -39.691,0 0,-9.738 z"
           style="fill:#808080;fill-opacity:1;fill-rule:nonzero;stroke:#000000;stroke-opacity:1;stroke-width:0.0141732;stroke-linecap:butt;stroke-linejoin:miter;stroke-miterlimit:4;stroke-dasharray:none"
           id="path3427" /></g><g
         id="g3437"
         transform="matrix(1,0,0,-1,0,850.39368)"><path
           d="m 71.551,28.352 793.699,0 0,793.699 -793.699,0 0,-793.699 z"
           style="fill:none;stroke:#000000;stroke-opacity:1;stroke-width:0.623622;stroke-linecap:butt;stroke-linejoin:miter;stroke-miterlimit:4;stroke-dasharray:none"
           id="path3439" /></g><path
         d="m 872.457,662.331 35.238,0 c 2.219,0 4,-2.34 4,-5.25 l 0,-32.734 c 0,-2.91 -1.781,-5.254 -4,-5.254 l -35.238,0 c -2.219,0 -4,2.344 -4,5.254 l 0,32.734 c 0,2.91 1.781,5.25 4,5.25 z"
         style="fill:#ff0000;fill-opacity:1;fill-rule:nonzero;stroke:none"
         id="path3441" /><text
         transform="matrix(1,0,0,-1,912.00769,627.72169)"
         id="text3443"><tspan
           style="fill:#000000;fill-opacity:1;fill-rule:nonzero;stroke:none;font-family:DejaVu Sans;font-variant:normal;font-weight:normal;font-size:32;writing-mode:lr;-inkscape-font-specification:DejaVuSans"
           x="0 24.64 33.472 50.144 67.712 87.328 99.936"
           y="0"
           sodipodi:role="line"
           id="tspan3445">Discard</tspan></text>
<path
         d="m 872.613,567.866 35.242,0 c 2.215,0 4,-2.343 4,-5.254 l 0,-32.734 c 0,-2.91 -1.785,-5.254 -4,-5.254 l -35.242,0 c -2.215,0 -4,2.344 -4,5.254 l 0,32.734 c 0,2.911 1.785,5.254 4,5.254 z"
         style="fill:#0000ff;fill-opacity:1;fill-rule:nonzero;stroke:none"
         id="path3447" /><text
         transform="matrix(1,0,0,-1,911.7029,558.39383)"
         id="text3449"><tspan
           style="fill:#000000;fill-opacity:1;fill-rule:nonzero;stroke:none;font-family:DejaVu Sans;font-variant:normal;font-weight:normal;font-size:32;writing-mode:lr;-inkscape-font-specification:DejaVuSans"
           x="0 20.288 40.576 53.76 64.992 84.608 102.208 121.888"
           y="0"
           sodipodi:role="line"
           id="tspan3451">Surface </tspan><tspan
           style="fill:#000000;fill-opacity:1;fill-rule:nonzero;stroke:none;font-family:DejaVu Sans;font-variant:normal;font-weight:normal;font-size:32;writing-mode:lr;-inkscape-font-specification:DejaVuSans"
           x="0 20.224 39.136 51.68 64.864 84.48 102.08 114.624 123.488 143.008"
           y="40"
           sodipodi:role="line"
           id="tspan3453">Extraction</tspan></text>
<path
         d="m 873.09,472.593 35.242,0 c 2.215,0 4,-2.344 4,-5.254 l 0,-32.734 c 0,-2.911 -1.785,-5.254 -4,-5.254 l -35.242,0 c -2.215,0 -4,2.343 -4,5.254 l 0,32.734 c 0,2.91 1.785,5.254 4,5.254 z"
         style="fill:#000080;fill-opacity:1;fill-rule:nonzero;stroke:none"
         id="path3455" /><text
         transform="matrix(1,0,0,-1,911.69136,460.87077)"
         id="text3457"><tspan
           style="fill:#000000;fill-opacity:1;fill-rule:nonzero;stroke:none;font-family:DejaVu Sans;font-variant:normal;font-weight:normal;font-size:32;writing-mode:lr;-inkscape-font-specification:DejaVuSans"
           x="0 16.128 24.96 44.64 53.504"
           y="0"
           sodipodi:role="line"
           id="tspan3459">Field</tspan><tspan
           style="fill:#000000;fill-opacity:1;fill-rule:nonzero;stroke:none;font-family:DejaVu Sans;font-variant:normal;font-weight:normal;font-size:32;writing-mode:lr;-inkscape-font-specification:DejaVuSans"
           x="0 20.224 39.136 58.72 67.584 87.872 107.456 120.032 128.864 148.416"
           y="40"
           sodipodi:role="line"
           id="tspan3461">Evaluation</tspan></text>
<path
         d="m 873.957,762.804 35.242,0 c 2.215,0 4,-2.344 4,-5.254 l 0,-32.734 c 0,-2.911 -1.785,-5.254 -4,-5.254 l -35.242,0 c -2.215,0 -4,2.343 -4,5.254 l 0,32.734 c 0,2.91 1.785,5.254 4,5.254 z"
         style="fill:#808080;fill-opacity:1;fill-rule:nonzero;stroke:none"
         id="path3463" /><text
         transform="matrix(1,0,0,-1,913.66763,753.01124)"
         id="text3465"><tspan
           style="fill:#000000;fill-opacity:1;fill-rule:nonzero;stroke:none;font-family:DejaVu Sans;font-variant:normal;font-weight:normal;font-size:32;writing-mode:lr;-inkscape-font-specification:DejaVuSans"
           x="0 9.408 29.696 38.56 58.24"
           y="0"
           sodipodi:role="line"
           id="tspan3467">Idle </tspan><tspan
           style="fill:#000000;fill-opacity:1;fill-rule:nonzero;stroke:none;font-family:DejaVu Sans;font-variant:normal;font-weight:normal;font-size:32;writing-mode:lr;-inkscape-font-specification:DejaVuSans"
           x="0 12.48 42.336 64.224 73.632 93.152"
           y="40"
           sodipodi:role="line"
           id="tspan3469">(WAIT)</tspan></text>
<g
         id="g3471"
         transform="matrix(1,0,0,-1,0,850.39368)"><path
           d="M 83.746,28.828 56,28.828"
           style="fill:none;stroke:#000000;stroke-opacity:1;stroke-width:0.8;stroke-linecap:butt;stroke-linejoin:miter;stroke-miterlimit:4;stroke-dasharray:none"
           id="path3473" /></g><g
         id="g3475"
         transform="matrix(1,0,0,-1,0,850.39368)"><path
           d="m 85.895,101.949 -27.747,0"
           style="fill:none;stroke:#000000;stroke-opacity:1;stroke-width:0.8;stroke-linecap:butt;stroke-linejoin:miter;stroke-miterlimit:4;stroke-dasharray:none"
           id="path3477" /></g><g
         id="g3479"
         transform="matrix(1,0,0,-1,0,850.39368)"><path
           d="m 85.566,180.789 -27.746,0"
           style="fill:none;stroke:#000000;stroke-opacity:1;stroke-width:0.8;stroke-linecap:butt;stroke-linejoin:miter;stroke-miterlimit:4;stroke-dasharray:none"
           id="path3481" /></g><g
         id="g3483"
         transform="matrix(1,0,0,-1,0,850.39368)"><path
           d="m 83.891,261.668 -27.746,0"
           style="fill:none;stroke:#000000;stroke-opacity:1;stroke-width:0.8;stroke-linecap:butt;stroke-linejoin:miter;stroke-miterlimit:4;stroke-dasharray:none"
           id="path3485" /></g><g
         id="g3487"
         transform="matrix(1,0,0,-1,0,850.39368)"><path
           d="m 84.449,341.668 -27.746,0"
           style="fill:none;stroke:#000000;stroke-opacity:1;stroke-width:0.8;stroke-linecap:butt;stroke-linejoin:miter;stroke-miterlimit:4;stroke-dasharray:none"
           id="path3489" /></g><g
         id="g3491"
         transform="matrix(1,0,0,-1,0,850.39368)"><path
           d="m 85.02,421.461 -27.747,0"
           style="fill:none;stroke:#000000;stroke-opacity:1;stroke-width:0.8;stroke-linecap:butt;stroke-linejoin:miter;stroke-miterlimit:4;stroke-dasharray:none"
           id="path3493" /></g><g
         id="g3495"
         transform="matrix(1,0,0,-1,0,850.39368)"><path
           d="m 85.598,501.512 -27.746,0"
           style="fill:none;stroke:#000000;stroke-opacity:1;stroke-width:0.8;stroke-linecap:butt;stroke-linejoin:miter;stroke-miterlimit:4;stroke-dasharray:none"
           id="path3497" /></g><g
         id="g3499"
         transform="matrix(1,0,0,-1,0,850.39368)"><path
           d="m 84.605,581.512 -27.746,0"
           style="fill:none;stroke:#000000;stroke-opacity:1;stroke-width:0.8;stroke-linecap:butt;stroke-linejoin:miter;stroke-miterlimit:4;stroke-dasharray:none"
           id="path3501" /></g><g
         id="g3503"
         transform="matrix(1,0,0,-1,0,850.39368)"><path
           d="m 84.605,741.355 -27.746,0"
           style="fill:none;stroke:#000000;stroke-opacity:1;stroke-width:0.8;stroke-linecap:butt;stroke-linejoin:miter;stroke-miterlimit:4;stroke-dasharray:none"
           id="path3505" /></g><g
         id="g3507"
         transform="matrix(1,0,0,-1,0,850.39368)"><path
           d="m 83.809,822.426 -27.743,0"
           style="fill:none;stroke:#000000;stroke-opacity:1;stroke-width:0.8;stroke-linecap:butt;stroke-linejoin:miter;stroke-miterlimit:4;stroke-dasharray:none"
           id="path3509" /></g><g
         id="g3511"
         transform="matrix(1,0,0,-1,0,850.39368)"><path
           d="m 85.09,661.375 -27.746,0"
           style="fill:none;stroke:#000000;stroke-opacity:1;stroke-width:0.8;stroke-linecap:butt;stroke-linejoin:miter;stroke-miterlimit:4;stroke-dasharray:none"
           id="path3513" /></g><text
         transform="matrix(1,0,0,-1,10.5171,23.441317)"
         id="text3515"><tspan
           style="fill:#000000;fill-opacity:1;fill-rule:nonzero;stroke:none;font-family:DejaVu Sans;font-variant:normal;font-weight:normal;font-size:25.599999;writing-mode:lr;-inkscape-font-specification:DejaVuSans"
           x="0 16.28159936"
           y="0"
           sodipodi:role="line"
           id="tspan3517">0%</tspan></text>
<text
         transform="matrix(1,0,0,-1,1.142447,814.06945)"
         id="text3519"><tspan
           style="fill:#000000;fill-opacity:1;fill-rule:nonzero;stroke:none;font-family:DejaVu Sans;font-variant:normal;font-weight:normal;font-size:19.200001;writing-mode:lr;-inkscape-font-specification:DejaVuSans"
           x="0 12.21120064 24.44160127 36.65280191"
           y="0"
           sodipodi:role="line"
           id="tspan3521">100%</tspan></text>
<text
         transform="matrix(1,0,0,-1,5.029624,98.714907)"
         id="text3523"><tspan
           style="fill:#000000;fill-opacity:1;fill-rule:nonzero;stroke:none;font-family:DejaVu Sans;font-variant:normal;font-weight:normal;font-size:25.599999;writing-mode:lr;-inkscape-font-specification:DejaVuSans"
           x="0 16.28159936 32.56319873"
           y="0"
           sodipodi:role="line"
           id="tspan3525">10%</tspan><tspan
           style="fill:#000000;fill-opacity:1;fill-rule:nonzero;stroke:none;font-family:DejaVu Sans;font-variant:normal;font-weight:normal;font-size:25.599999;writing-mode:lr;-inkscape-font-specification:DejaVuSans"
           x="-1.88516601 14.39643336 30.67803272"
           y="-79.781219"
           sodipodi:role="line"
           id="tspan3527">20%</tspan><tspan
           style="fill:#000000;fill-opacity:1;fill-rule:nonzero;stroke:none;font-family:DejaVu Sans;font-variant:normal;font-weight:normal;font-size:25.599999;writing-mode:lr;-inkscape-font-specification:DejaVuSans"
           x="-3.60554226 12.6760571 28.95765647"
           y="-160.2968"
           sodipodi:role="line"
           id="tspan3529">30%</tspan><tspan
           style="fill:#000000;fill-opacity:1;fill-rule:nonzero;stroke:none;font-family:DejaVu Sans;font-variant:normal;font-weight:normal;font-size:25.599999;writing-mode:lr;-inkscape-font-specification:DejaVuSans"
           x="-2.60842486 13.67317451 29.95477387"
           y="-240.53861"
           sodipodi:role="line"
           id="tspan3531">40%</tspan><tspan
           style="fill:#000000;fill-opacity:1;fill-rule:nonzero;stroke:none;font-family:DejaVu Sans;font-variant:normal;font-weight:normal;font-size:25.599999;writing-mode:lr;-inkscape-font-specification:DejaVuSans"
           x="-3.62760946 12.65398991 28.93558927"
           y="-321.31713"
           sodipodi:role="line"
           id="tspan3533">50%</tspan><tspan
           style="fill:#000000;fill-opacity:1;fill-rule:nonzero;stroke:none;font-family:DejaVu Sans;font-variant:normal;font-weight:normal;font-size:25.599999;writing-mode:lr;-inkscape-font-specification:DejaVuSans"
           x="-5.07412972 11.20746964 27.48906901"
           y="-400.85753"
           sodipodi:role="line"
           id="tspan3535">60%</tspan><tspan
           style="fill:#000000;fill-opacity:1;fill-rule:nonzero;stroke:none;font-family:DejaVu Sans;font-variant:normal;font-weight:normal;font-size:25.599999;writing-mode:lr;-inkscape-font-specification:DejaVuSans"
           x="-3.04679412 13.23480524 29.51640461"
           y="-480.16751"
           sodipodi:role="line"
           id="tspan3537">70%</tspan><tspan
           style="fill:#000000;fill-opacity:1;fill-rule:nonzero;stroke:none;font-family:DejaVu Sans;font-variant:normal;font-weight:normal;font-size:25.599999;writing-mode:lr;-inkscape-font-specification:DejaVuSans"
           x="-3.48516594 12.79643342 29.07803278"
           y="-564.03659"
           sodipodi:role="line"
           id="tspan3539">80%</tspan><tspan
           style="fill:#000000;fill-opacity:1;fill-rule:nonzero;stroke:none;font-family:DejaVu Sans;font-variant:normal;font-weight:normal;font-size:25.599999;writing-mode:lr;-inkscape-font-specification:DejaVuSans"
           x="-2.76190709 13.51969227 29.80129164"
           y="-640.19052"
           sodipodi:role="line"
           id="tspan3541">90%</tspan></text>
</g></g></svg>