<?xml version="1.0" encoding="UTF-8" standalone="no"?>
<!-- Created with Inkscape (http://www.inkscape.org/) -->

<svg
   xmlns:dc="http://purl.org/dc/elements/1.1/"
   xmlns:cc="http://creativecommons.org/ns#"
   xmlns:rdf="http://www.w3.org/1999/02/22-rdf-syntax-ns#"
   xmlns:svg="http://www.w3.org/2000/svg"
   xmlns="http://www.w3.org/2000/svg"
   xmlns:sodipodi="http://sodipodi.sourceforge.net/DTD/sodipodi-0.dtd"
   xmlns:inkscape="http://www.inkscape.org/namespaces/inkscape"
   id="svg3020"
   version="1.1"
   inkscape:version="0.48.1 r9760"
   width="583.71429"
   height="542.85713"
   xml:space="preserve"
   sodipodi:docname="MPU.pdf"><metadata
     id="metadata3026"><rdf:RDF><cc:Work
         rdf:about=""><dc:format>image/svg+xml</dc:format><dc:type
           rdf:resource="http://purl.org/dc/dcmitype/StillImage" /><dc:title></dc:title></cc:Work></rdf:RDF></metadata><defs
     id="defs3024" /><sodipodi:namedview
     pagecolor="#ffffff"
     bordercolor="#666666"
     borderopacity="1"
     objecttolerance="10"
     gridtolerance="10"
     guidetolerance="10"
     inkscape:pageopacity="0"
     inkscape:pageshadow="2"
     inkscape:window-width="1920"
     inkscape:window-height="1123"
     id="namedview3022"
     showgrid="false"
     inkscape:zoom="1.0868422"
     inkscape:cx="428.254"
     inkscape:cy="344.15205"
     inkscape:window-x="2560"
     inkscape:window-y="24"
     inkscape:window-maximized="1"
     inkscape:current-layer="g3030" /><g
     id="g3028"
     inkscape:groupmode="layer"
     inkscape:label="MPU"
     transform="matrix(1.25,0,0,-1.25,0,542.85713)"><g
       id="g3030"><path
         d="m 139.199,304.571 184,0 0,-174.855 -184,0 0,174.855 z"
         style="fill:#999999;fill-opacity:1;fill-rule:nonzero;stroke:none"
         id="path3032" /><path
         d="m 147.199,303.715 c 0,-4.261 -3.324,-7.714 -7.429,-7.714 -4.102,0 -7.426,3.453 -7.426,7.714 0,4.258 3.324,7.715 7.426,7.715 4.105,0 7.429,-3.457 7.429,-7.715 z"
         style="fill:#ff0000;fill-opacity:1;fill-rule:nonzero;stroke:none"
         id="path3034" /><path
         d="m 330.059,304.001 c 0,-4.262 -3.329,-7.715 -7.43,-7.715 -4.102,0 -7.43,3.453 -7.43,7.715 0,4.261 3.328,7.714 7.43,7.714 4.101,0 7.43,-3.453 7.43,-7.714 z"
         style="fill:#ff0000;fill-opacity:1;fill-rule:nonzero;stroke:none"
         id="path3036" /><path
         d="m 330.059,128.571 c 0,-4.262 -3.329,-7.715 -7.43,-7.715 -4.102,0 -7.43,3.453 -7.43,7.715 0,4.262 3.328,7.715 7.43,7.715 4.101,0 7.43,-3.453 7.43,-7.715 z"
         style="fill:#ff0000;fill-opacity:1;fill-rule:nonzero;stroke:none"
         id="path3038" /><path
         d="m 146.172,128.571 c 0,-4.262 -3.328,-7.715 -7.43,-7.715 -4.101,0 -7.43,3.453 -7.43,7.715 0,4.262 3.329,7.715 7.43,7.715 4.102,0 7.43,-3.453 7.43,-7.715 z"
         style="fill:#ff0000;fill-opacity:1;fill-rule:nonzero;stroke:none"
         id="path3040" /><path
         d="m 466.516,129.829 c 0,-71.641 -61.145,-129.715 -136.575,-129.715 -75.425,0 -136.57,58.074 -136.57,129.715 0,71.64 61.145,129.715 136.57,129.715 75.43,0 136.575,-58.075 136.575,-129.715 z"
         style="fill:#0000b4;fill-opacity:0.198276;fill-rule:nonzero;stroke:none"
         id="path3042" /><path
         d="m 466.629,304.571 c 0,-71.637 -61.145,-129.715 -136.57,-129.715 -75.43,0 -136.575,58.078 -136.575,129.715 0,71.64 61.145,129.715 136.575,129.715 75.425,0 136.57,-58.075 136.57,-129.715 z"
         style="fill:#0000b4;fill-opacity:0.198276;fill-rule:nonzero;stroke:none"
         id="path3044" /><path
         d="m 273.145,304.344 c 0,-71.64 -61.149,-129.715 -136.575,-129.715 C 61.145,174.629 0,232.704 0,304.344 c 0,71.637 61.145,129.711 136.57,129.711 75.426,0 136.575,-58.074 136.575,-129.711 z"
         style="fill:#0000b4;fill-opacity:0.198276;fill-rule:nonzero;stroke:none"
         id="path3046" /><path
         d="M 274.516,130.055 C 274.516,58.419 213.371,0.344 137.941,0.344 62.516,0.344 1.371,58.419 1.371,130.055 c 0,71.641 61.145,129.715 136.57,129.715 75.43,0 136.575,-58.074 136.575,-129.715 z"
         style="fill:#0000b4;fill-opacity:0.198276;fill-rule:nonzero;stroke:none"
         id="path3048" /><path
         d="M 138.742,156.344 323.312,155.2"
         style="fill:none;stroke:#000000;stroke-opacity:1;stroke-width:0.8;stroke-linecap:butt;stroke-linejoin:miter;stroke-miterlimit:4;stroke-dasharray:none"
         id="path3050" /><path
         d="m 138.801,181.372 184.57,-1.145"
         style="fill:none;stroke:#000000;stroke-opacity:1;stroke-width:0.8;stroke-linecap:butt;stroke-linejoin:miter;stroke-miterlimit:4;stroke-dasharray:none"
         id="path3052" /><path
         d="m 139.371,205.598 184.57,-1.14"
         style="fill:none;stroke:#000000;stroke-opacity:1;stroke-width:0.8;stroke-linecap:butt;stroke-linejoin:miter;stroke-miterlimit:4;stroke-dasharray:none"
         id="path3054" /><path
         d="m 139.371,229.598 184.57,-1.14"
         style="fill:none;stroke:#000000;stroke-opacity:1;stroke-width:0.8;stroke-linecap:butt;stroke-linejoin:miter;stroke-miterlimit:4;stroke-dasharray:none"
         id="path3056" /><path
         d="m 139.371,253.598 184.57,-1.14"
         style="fill:none;stroke:#000000;stroke-opacity:1;stroke-width:0.8;stroke-linecap:butt;stroke-linejoin:miter;stroke-miterlimit:4;stroke-dasharray:none"
         id="path3058" /><path
         d="m 139.371,277.598 184.57,-1.14"
         style="fill:none;stroke:#000000;stroke-opacity:1;stroke-width:0.8;stroke-linecap:butt;stroke-linejoin:miter;stroke-miterlimit:4;stroke-dasharray:none"
         id="path3060" /><path
         d="m 164.914,304.344 0,-174.179"
         style="fill:none;stroke:#000000;stroke-opacity:1;stroke-width:0.899704;stroke-linecap:butt;stroke-linejoin:miter;stroke-miterlimit:4;stroke-dasharray:none"
         id="path3062" /><path
         d="m 191.199,303.434 0,-174.18"
         style="fill:none;stroke:#000000;stroke-opacity:1;stroke-width:0.899704;stroke-linecap:butt;stroke-linejoin:miter;stroke-miterlimit:4;stroke-dasharray:none"
         id="path3064" /><path
         d="m 218.398,303.434 0,-174.18"
         style="fill:none;stroke:#000000;stroke-opacity:1;stroke-width:0.899704;stroke-linecap:butt;stroke-linejoin:miter;stroke-miterlimit:4;stroke-dasharray:none"
         id="path3066" /><path
         d="m 245.145,303.547 0,-174.179"
         style="fill:none;stroke:#000000;stroke-opacity:1;stroke-width:0.899704;stroke-linecap:butt;stroke-linejoin:miter;stroke-miterlimit:4;stroke-dasharray:none"
         id="path3068" /><path
         d="m 270.742,303.547 0,-174.179"
         style="fill:none;stroke:#000000;stroke-opacity:1;stroke-width:0.899704;stroke-linecap:butt;stroke-linejoin:miter;stroke-miterlimit:4;stroke-dasharray:none"
         id="path3070" /><path
         d="m 296.344,303.547 0,-174.179"
         style="fill:none;stroke:#000000;stroke-opacity:1;stroke-width:0.899704;stroke-linecap:butt;stroke-linejoin:miter;stroke-miterlimit:4;stroke-dasharray:none"
         id="path3072" /><path
         d="m 139.887,303.54 0,-174.18"
         style="fill:none;stroke:#000000;stroke-opacity:1;stroke-width:0.899704;stroke-linecap:butt;stroke-linejoin:miter;stroke-miterlimit:4;stroke-dasharray:none"
         id="path3074" /><path
         d="m 323.77,303.434 0,-174.18"
         style="fill:none;stroke:#000000;stroke-opacity:1;stroke-width:0.899704;stroke-linecap:butt;stroke-linejoin:miter;stroke-miterlimit:4;stroke-dasharray:none"
         id="path3076" /><path
         d="m 139.371,130.286 184.57,-1.145"
         style="fill:none;stroke:#000000;stroke-opacity:1;stroke-width:0.8;stroke-linecap:butt;stroke-linejoin:miter;stroke-miterlimit:4;stroke-dasharray:none"
         id="path3078" /><path
         d="m 139.602,304.114 184.57,-1.141"
         style="fill:none;stroke:#000000;stroke-opacity:1;stroke-width:0.8;stroke-linecap:butt;stroke-linejoin:miter;stroke-miterlimit:4;stroke-dasharray:none"
         id="path3080" /><path
         d="m 110.285,301.715 -4.57,-73.683 8,-0.063 -3.43,73.746 z"
         style="fill:#000000;fill-opacity:1;fill-rule:evenodd;stroke:none"
         id="path3082" /><path
         d="m 109.715,129.715 4,69.141 -8,0 4,-69.141 z"
         style="fill:#000000;fill-opacity:1;fill-rule:evenodd;stroke:none"
         id="path3084" /><text
         transform="scale(1,-1)"
         id="text3086"
         x="53.77137"
         y="-208.4695"><tspan
           style="font-size:16px;font-variant:normal;font-weight:normal;writing-mode:lr-tb;fill:#000000;fill-opacity:1;fill-rule:nonzero;stroke:none;font-family:DejaVu Sans;-inkscape-font-specification:DejaVuSans"
           x="53.77137 63.867371 68.251366 78.39537 93.259369 106.65137 119.99537"
           y="-208.4695"
           sodipodi:role="line"
           id="tspan3088">Side&lt;=1</tspan></text>
<path
         d="m 399.957,373.934 5.273,-6.015 24.141,26.48 -29.414,-20.465 z"
         style="fill:#000000;fill-opacity:1;fill-rule:evenodd;stroke:none"
         id="path3090" /><text
         transform="matrix(0.73026874,0.68315999,0.68315999,-0.73026874,0,0)"
         id="text3092"
         x="485.34988"
         y="7.6250048"
         style="font-size:12px"><tspan
           style="font-size:16px;font-variant:normal;font-weight:normal;writing-mode:lr-tb;fill:#000000;fill-opacity:1;fill-rule:nonzero;stroke:none;font-family:DejaVu Sans;-inkscape-font-specification:DejaVuSans"
           x="485.34988 492.85388 499.67468 506.77548 509.8443 516.9115 526.26349 535.60431"
           y="7.6250048"
           sodipodi:role="line"
           id="tspan3094">Radius=1</tspan></text>
<text
         transform="matrix(1,0,0,-1,149.14286,112.61986)"
         id="text3096"><tspan
           style="fill:#000000;fill-opacity:1;fill-rule:nonzero;stroke:none;font-family:DejaVu Sans;font-variant:normal;font-weight:normal;font-size:16;writing-mode:lr;-inkscape-font-specification:DejaVuSans"
           x="0"
           y="0"
           id="tspan3098">1</tspan><tspan
           style="fill:#000000;fill-opacity:1;fill-rule:nonzero;stroke:none;font-family:DejaVu Sans;font-variant:normal;font-weight:normal;font-size:16;writing-mode:lr;-inkscape-font-specification:DejaVuSans"
           x="23.798112"
           y="-0.8624048"
           id="tspan3100">2</tspan><tspan
           style="fill:#000000;fill-opacity:1;fill-rule:nonzero;stroke:none;font-family:DejaVu Sans;font-variant:normal;font-weight:normal;font-size:16;writing-mode:lr;-inkscape-font-specification:DejaVuSans"
           x="49.626672"
           y="0.2804528"
           id="tspan3102">3</tspan><tspan
           style="fill:#000000;fill-opacity:1;fill-rule:nonzero;stroke:none;font-family:DejaVu Sans;font-variant:normal;font-weight:normal;font-size:16;writing-mode:lr;-inkscape-font-specification:DejaVuSans"
           x="75.34096"
           y="0.1661672"
           id="tspan3104">4</tspan><tspan
           style="fill:#000000;fill-opacity:1;fill-rule:nonzero;stroke:none;font-family:DejaVu Sans;font-variant:normal;font-weight:normal;font-size:16;writing-mode:lr;-inkscape-font-specification:DejaVuSans"
           x="103.9124"
           y="-0.519548"
           id="tspan3106">5</tspan><tspan
           style="fill:#000000;fill-opacity:1;fill-rule:nonzero;stroke:none;font-family:DejaVu Sans;font-variant:normal;font-weight:normal;font-size:16;writing-mode:lr;-inkscape-font-specification:DejaVuSans"
           x="130.769552 154.769552"
           y="-1.0909768"
           sodipodi:role="line"
           id="tspan3108">67</tspan></text>
<path
         d="m 330.059,304.036 c 0,-4.262 -3.329,-7.715 -7.43,-7.715 -4.102,0 -7.43,3.453 -7.43,7.715 0,4.258 3.328,7.711 7.43,7.711 4.101,0 7.43,-3.453 7.43,-7.711 z"
         style="fill:#0000ff;fill-opacity:1;fill-rule:nonzero;stroke:none"
         id="path3110" /><path
         d="m 324.57,303.43 30.992,22.254 -5.32,5.973 -25.672,-28.227 z"
         style="fill:#000000;fill-opacity:1;fill-rule:evenodd;stroke:none"
         id="path3112" /><path
         d="m 330.055,128.571 c 0,-4.262 -3.328,-7.715 -7.43,-7.715 -4.102,0 -7.43,3.453 -7.43,7.715 0,4.262 3.328,7.715 7.43,7.715 4.102,0 7.43,-3.453 7.43,-7.715 z"
         style="fill:#0000ff;fill-opacity:1;fill-rule:nonzero;stroke:none"
         id="path3114" /><path
         d="m 146.211,128.637 c 0,-4.258 -3.328,-7.715 -7.43,-7.715 -4.105,0 -7.429,3.457 -7.429,7.715 0,4.262 3.324,7.715 7.429,7.715 4.102,0 7.43,-3.453 7.43,-7.715 z"
         style="fill:#0000ff;fill-opacity:1;fill-rule:nonzero;stroke:none"
         id="path3116" /><path
         d="m 147.199,303.794 c 0,-4.258 -3.324,-7.715 -7.429,-7.715 -4.102,0 -7.426,3.457 -7.426,7.715 0,4.257 3.324,7.71 7.426,7.71 4.105,0 7.429,-3.453 7.429,-7.71 z"
         style="fill:#0000ff;fill-opacity:1;fill-rule:nonzero;stroke:none"
         id="path3118" /><path
         d="m 210.844,325.036 12.891,0 0,-201.535 -12.891,0 0,201.535 z"
         style="fill:#ff0000;fill-opacity:0.469828;fill-rule:nonzero;stroke:none"
         id="path3120" /><text
         transform="matrix(1,0,0,-1,362.69286,187.277)"
         id="text3122"><tspan
           style="fill:#000000;fill-opacity:1;fill-rule:nonzero;stroke:none;font-family:DejaVu Sans;font-variant:normal;font-weight:normal;font-size:16;writing-mode:lr;-inkscape-font-specification:DejaVuSans"
           x="0 11.168 21.008 25.408 29.808 39.92 44.32 52.672"
           y="0"
           sodipodi:role="line"
           id="tspan3124">CellSize</tspan></text>
<path
         d="m 328.66,188.176 -0.176,9.996 30.61,-4.461 -30.434,-5.535 z"
         style="fill:#000000;fill-opacity:1;fill-rule:evenodd;stroke:none"
         id="path3126" /><path
         d="m 325.52,204.251 4.41,0 0,-23.75 -4.41,0 0,23.75 z"
         style="fill:#280b0b;fill-opacity:1;fill-rule:nonzero;stroke:none"
         id="path3128" /><path
         d="m 158.883,324.848 12.891,0 0,-101.785 -12.891,0 0,101.785 z"
         style="fill:#ff0000;fill-opacity:0.47451;fill-rule:nonzero;stroke:none"
         id="path3130" /><path
         d="m 167.039,303.645 c 0,-1.457 -1.074,-2.637 -2.398,-2.637 -1.329,0 -2.403,1.18 -2.403,2.637 0,1.457 1.074,2.641 2.403,2.641 1.324,0 2.398,-1.184 2.398,-2.641 z"
         style="fill:#280b0b;fill-opacity:1;fill-rule:nonzero;stroke:none"
         id="path3132" /><path
         d="m 167.039,277.657 c 0,-1.461 -1.074,-2.641 -2.398,-2.641 -1.329,0 -2.403,1.18 -2.403,2.641 0,1.457 1.074,2.637 2.403,2.637 1.324,0 2.398,-1.18 2.398,-2.637 z"
         style="fill:#280b0b;fill-opacity:1;fill-rule:nonzero;stroke:none"
         id="path3134" /><path
         d="m 167.039,252.575 c 0,-1.457 -1.074,-2.637 -2.398,-2.637 -1.329,0 -2.403,1.18 -2.403,2.637 0,1.457 1.074,2.64 2.403,2.64 1.324,0 2.398,-1.183 2.398,-2.64 z"
         style="fill:#280b0b;fill-opacity:1;fill-rule:nonzero;stroke:none"
         id="path3136" /><path
         d="m 167.039,229.782 c 0,-1.457 -1.074,-2.637 -2.398,-2.637 -1.329,0 -2.403,1.18 -2.403,2.637 0,1.461 1.074,2.64 2.403,2.64 1.324,0 2.398,-1.179 2.398,-2.64 z"
         style="fill:#280b0b;fill-opacity:1;fill-rule:nonzero;stroke:none"
         id="path3138" /><path
         d="m 166.648,205.008 c 0,-1.461 -1.074,-2.64 -2.398,-2.64 -1.324,0 -2.398,1.179 -2.398,2.64 0,1.457 1.074,2.637 2.398,2.637 1.324,0 2.398,-1.18 2.398,-2.637 z"
         style="fill:#280b0b;fill-opacity:1;fill-rule:nonzero;stroke:none"
         id="path3140" /><path
         d="m 166.648,180.614 c 0,-1.457 -1.074,-2.637 -2.398,-2.637 -1.324,0 -2.398,1.18 -2.398,2.637 0,1.457 1.074,2.64 2.398,2.64 1.324,0 2.398,-1.183 2.398,-2.64 z"
         style="fill:#280b0b;fill-opacity:1;fill-rule:nonzero;stroke:none"
         id="path3142" /><path
         d="m 166.648,155.536 c 0,-1.457 -1.074,-2.641 -2.398,-2.641 -1.324,0 -2.398,1.184 -2.398,2.641 0,1.457 1.074,2.64 2.398,2.64 1.324,0 2.398,-1.183 2.398,-2.64 z"
         style="fill:#280b0b;fill-opacity:1;fill-rule:nonzero;stroke:none"
         id="path3144" /><path
         d="m 166.648,129.844 c 0,-1.457 -1.074,-2.64 -2.398,-2.64 -1.324,0 -2.398,1.183 -2.398,2.64 0,1.457 1.074,2.637 2.398,2.637 1.324,0 2.398,-1.18 2.398,-2.637 z"
         style="fill:#280b0b;fill-opacity:1;fill-rule:nonzero;stroke:none"
         id="path3146" /><path
         d="m 142.035,278.114 c 0,-1.457 -1.074,-2.641 -2.398,-2.641 -1.325,0 -2.399,1.184 -2.399,2.641 0,1.457 1.074,2.637 2.399,2.637 1.324,0 2.398,-1.18 2.398,-2.637 z"
         style="fill:#280b0b;fill-opacity:1;fill-rule:nonzero;stroke:none"
         id="path3148" /><path
         d="m 142.035,253.032 c 0,-1.457 -1.074,-2.637 -2.398,-2.637 -1.325,0 -2.399,1.18 -2.399,2.637 0,1.457 1.074,2.64 2.399,2.64 1.324,0 2.398,-1.183 2.398,-2.64 z"
         style="fill:#280b0b;fill-opacity:1;fill-rule:nonzero;stroke:none"
         id="path3150" /><path
         d="m 142.035,230.243 c 0,-1.461 -1.074,-2.641 -2.398,-2.641 -1.325,0 -2.399,1.18 -2.399,2.641 0,1.457 1.074,2.636 2.399,2.636 1.324,0 2.398,-1.179 2.398,-2.636 z"
         style="fill:#280b0b;fill-opacity:1;fill-rule:nonzero;stroke:none"
         id="path3152" /><path
         d="m 141.648,205.465 c 0,-1.457 -1.074,-2.64 -2.398,-2.64 -1.324,0 -2.398,1.183 -2.398,2.64 0,1.457 1.074,2.637 2.398,2.637 1.324,0 2.398,-1.18 2.398,-2.637 z"
         style="fill:#280b0b;fill-opacity:1;fill-rule:nonzero;stroke:none"
         id="path3154" /><path
         d="m 141.648,181.071 c 0,-1.457 -1.074,-2.637 -2.398,-2.637 -1.324,0 -2.398,1.18 -2.398,2.637 0,1.461 1.074,2.64 2.398,2.64 1.324,0 2.398,-1.179 2.398,-2.64 z"
         style="fill:#280b0b;fill-opacity:1;fill-rule:nonzero;stroke:none"
         id="path3156" /><path
         d="m 141.648,155.993 c 0,-1.457 -1.074,-2.641 -2.398,-2.641 -1.324,0 -2.398,1.184 -2.398,2.641 0,1.457 1.074,2.64 2.398,2.64 1.324,0 2.398,-1.183 2.398,-2.64 z"
         style="fill:#280b0b;fill-opacity:1;fill-rule:nonzero;stroke:none"
         id="path3158" /><path
         d="m 325.391,277.309 c 0,-1.457 -1.075,-2.637 -2.399,-2.637 -1.324,0 -2.398,1.18 -2.398,2.637 0,1.457 1.074,2.641 2.398,2.641 1.324,0 2.399,-1.184 2.399,-2.641 z"
         style="fill:#280b0b;fill-opacity:1;fill-rule:nonzero;stroke:none"
         id="path3160" /><path
         d="m 325.391,252.231 c 0,-1.457 -1.075,-2.641 -2.399,-2.641 -1.324,0 -2.398,1.184 -2.398,2.641 0,1.457 1.074,2.637 2.398,2.637 1.324,0 2.399,-1.18 2.399,-2.637 z"
         style="fill:#280b0b;fill-opacity:1;fill-rule:nonzero;stroke:none"
         id="path3162" /><path
         d="m 325.391,229.438 c 0,-1.457 -1.075,-2.637 -2.399,-2.637 -1.324,0 -2.398,1.18 -2.398,2.637 0,1.457 1.074,2.641 2.398,2.641 1.324,0 2.399,-1.184 2.399,-2.641 z"
         style="fill:#280b0b;fill-opacity:1;fill-rule:nonzero;stroke:none"
         id="path3164" /><path
         d="m 325.004,204.661 c 0,-1.457 -1.074,-2.637 -2.402,-2.637 -1.325,0 -2.399,1.18 -2.399,2.637 0,1.457 1.074,2.64 2.399,2.64 1.328,0 2.402,-1.183 2.402,-2.64 z"
         style="fill:#280b0b;fill-opacity:1;fill-rule:nonzero;stroke:none"
         id="path3166" /><path
         d="m 325.004,180.27 c 0,-1.457 -1.074,-2.641 -2.402,-2.641 -1.325,0 -2.399,1.184 -2.399,2.641 0,1.457 1.074,2.641 2.399,2.641 1.328,0 2.402,-1.184 2.402,-2.641 z"
         style="fill:#280b0b;fill-opacity:1;fill-rule:nonzero;stroke:none"
         id="path3168" /><path
         d="m 325.004,155.192 c 0,-1.461 -1.074,-2.641 -2.402,-2.641 -1.325,0 -2.399,1.18 -2.399,2.641 0,1.457 1.074,2.637 2.399,2.637 1.328,0 2.402,-1.18 2.402,-2.637 z"
         style="fill:#280b0b;fill-opacity:1;fill-rule:nonzero;stroke:none"
         id="path3170" /><path
         d="m 193.559,303.004 c 0,-1.457 -1.075,-2.64 -2.399,-2.64 -1.324,0 -2.398,1.183 -2.398,2.64 0,1.457 1.074,2.641 2.398,2.641 1.324,0 2.399,-1.184 2.399,-2.641 z"
         style="fill:#280b0b;fill-opacity:1;fill-rule:nonzero;stroke:none"
         id="path3172" /><path
         d="m 193.559,277.012 c 0,-1.457 -1.075,-2.636 -2.399,-2.636 -1.324,0 -2.398,1.179 -2.398,2.636 0,1.457 1.074,2.641 2.398,2.641 1.324,0 2.399,-1.184 2.399,-2.641 z"
         style="fill:#280b0b;fill-opacity:1;fill-rule:nonzero;stroke:none"
         id="path3174" /><path
         d="m 193.559,251.934 c 0,-1.457 -1.075,-2.64 -2.399,-2.64 -1.324,0 -2.398,1.183 -2.398,2.64 0,1.457 1.074,2.637 2.398,2.637 1.324,0 2.399,-1.18 2.399,-2.637 z"
         style="fill:#280b0b;fill-opacity:1;fill-rule:nonzero;stroke:none"
         id="path3176" /><path
         d="m 193.559,229.141 c 0,-1.457 -1.075,-2.64 -2.399,-2.64 -1.324,0 -2.398,1.183 -2.398,2.64 0,1.457 1.074,2.641 2.398,2.641 1.324,0 2.399,-1.184 2.399,-2.641 z"
         style="fill:#280b0b;fill-opacity:1;fill-rule:nonzero;stroke:none"
         id="path3178" /><path
         d="m 193.172,204.364 c 0,-1.457 -1.074,-2.637 -2.399,-2.637 -1.328,0 -2.402,1.18 -2.402,2.637 0,1.457 1.074,2.64 2.402,2.64 1.325,0 2.399,-1.183 2.399,-2.64 z"
         style="fill:#280b0b;fill-opacity:1;fill-rule:nonzero;stroke:none"
         id="path3180" /><path
         d="m 193.172,179.973 c 0,-1.457 -1.074,-2.64 -2.399,-2.64 -1.328,0 -2.402,1.183 -2.402,2.64 0,1.457 1.074,2.641 2.402,2.641 1.325,0 2.399,-1.184 2.399,-2.641 z"
         style="fill:#280b0b;fill-opacity:1;fill-rule:nonzero;stroke:none"
         id="path3182" /><path
         d="m 193.172,154.895 c 0,-1.461 -1.074,-2.641 -2.399,-2.641 -1.328,0 -2.402,1.18 -2.402,2.641 0,1.457 1.074,2.637 2.402,2.637 1.325,0 2.399,-1.18 2.399,-2.637 z"
         style="fill:#280b0b;fill-opacity:1;fill-rule:nonzero;stroke:none"
         id="path3184" /><path
         d="m 193.172,129.844 c 0,-1.457 -1.074,-2.64 -2.399,-2.64 -1.328,0 -2.402,1.183 -2.402,2.64 0,1.457 1.074,2.637 2.402,2.637 1.325,0 2.399,-1.18 2.399,-2.637 z"
         style="fill:#280b0b;fill-opacity:1;fill-rule:nonzero;stroke:none"
         id="path3186" /><path
         d="m 220.422,303.946 c 0,-1.457 -1.074,-2.641 -2.399,-2.641 -1.324,0 -2.398,1.184 -2.398,2.641 0,1.457 1.074,2.64 2.398,2.64 1.325,0 2.399,-1.183 2.399,-2.64 z"
         style="fill:#280b0b;fill-opacity:1;fill-rule:nonzero;stroke:none"
         id="path3188" /><path
         d="m 220.422,277.954 c 0,-1.457 -1.074,-2.637 -2.399,-2.637 -1.324,0 -2.398,1.18 -2.398,2.637 0,1.457 1.074,2.64 2.398,2.64 1.325,0 2.399,-1.183 2.399,-2.64 z"
         style="fill:#280b0b;fill-opacity:1;fill-rule:nonzero;stroke:none"
         id="path3190" /><path
         d="m 220.422,252.876 c 0,-1.457 -1.074,-2.641 -2.399,-2.641 -1.324,0 -2.398,1.184 -2.398,2.641 0,1.457 1.074,2.636 2.398,2.636 1.325,0 2.399,-1.179 2.399,-2.636 z"
         style="fill:#280b0b;fill-opacity:1;fill-rule:nonzero;stroke:none"
         id="path3192" /><path
         d="m 220.422,230.083 c 0,-1.457 -1.074,-2.637 -2.399,-2.637 -1.324,0 -2.398,1.18 -2.398,2.637 0,1.457 1.074,2.64 2.398,2.64 1.325,0 2.399,-1.183 2.399,-2.64 z"
         style="fill:#280b0b;fill-opacity:1;fill-rule:nonzero;stroke:none"
         id="path3194" /><path
         d="m 220.035,205.305 c 0,-1.457 -1.074,-2.636 -2.398,-2.636 -1.325,0 -2.399,1.179 -2.399,2.636 0,1.457 1.074,2.641 2.399,2.641 1.324,0 2.398,-1.184 2.398,-2.641 z"
         style="fill:#280b0b;fill-opacity:1;fill-rule:nonzero;stroke:none"
         id="path3196" /><path
         d="m 220.035,180.915 c 0,-1.457 -1.074,-2.641 -2.398,-2.641 -1.325,0 -2.399,1.184 -2.399,2.641 0,1.457 1.074,2.64 2.399,2.64 1.324,0 2.398,-1.183 2.398,-2.64 z"
         style="fill:#280b0b;fill-opacity:1;fill-rule:nonzero;stroke:none"
         id="path3198" /><path
         d="m 220.035,155.836 c 0,-1.457 -1.074,-2.64 -2.398,-2.64 -1.325,0 -2.399,1.183 -2.399,2.64 0,1.458 1.074,2.637 2.399,2.637 1.324,0 2.398,-1.179 2.398,-2.637 z"
         style="fill:#280b0b;fill-opacity:1;fill-rule:nonzero;stroke:none"
         id="path3200" /><path
         d="m 220.035,129.844 c 0,-1.457 -1.074,-2.64 -2.398,-2.64 -1.325,0 -2.399,1.183 -2.399,2.64 0,1.457 1.074,2.637 2.399,2.637 1.324,0 2.398,-1.18 2.398,-2.637 z"
         style="fill:#280b0b;fill-opacity:1;fill-rule:nonzero;stroke:none"
         id="path3202" /><path
         d="m 247.625,303.946 c 0,-1.457 -1.074,-2.641 -2.402,-2.641 -1.325,0 -2.399,1.184 -2.399,2.641 0,1.457 1.074,2.64 2.399,2.64 1.328,0 2.402,-1.183 2.402,-2.64 z"
         style="fill:#280b0b;fill-opacity:1;fill-rule:nonzero;stroke:none"
         id="path3204" /><path
         d="m 247.625,277.954 c 0,-1.457 -1.074,-2.637 -2.402,-2.637 -1.325,0 -2.399,1.18 -2.399,2.637 0,1.457 1.074,2.64 2.399,2.64 1.328,0 2.402,-1.183 2.402,-2.64 z"
         style="fill:#280b0b;fill-opacity:1;fill-rule:nonzero;stroke:none"
         id="path3206" /><path
         d="m 247.625,252.876 c 0,-1.457 -1.074,-2.641 -2.402,-2.641 -1.325,0 -2.399,1.184 -2.399,2.641 0,1.457 1.074,2.636 2.399,2.636 1.328,0 2.402,-1.179 2.402,-2.636 z"
         style="fill:#280b0b;fill-opacity:1;fill-rule:nonzero;stroke:none"
         id="path3208" /><path
         d="m 247.625,230.083 c 0,-1.457 -1.074,-2.637 -2.402,-2.637 -1.325,0 -2.399,1.18 -2.399,2.637 0,1.457 1.074,2.64 2.399,2.64 1.328,0 2.402,-1.183 2.402,-2.64 z"
         style="fill:#280b0b;fill-opacity:1;fill-rule:nonzero;stroke:none"
         id="path3210" /><path
         d="m 247.234,205.305 c 0,-1.457 -1.074,-2.636 -2.398,-2.636 -1.324,0 -2.398,1.179 -2.398,2.636 0,1.457 1.074,2.641 2.398,2.641 1.324,0 2.398,-1.184 2.398,-2.641 z"
         style="fill:#280b0b;fill-opacity:1;fill-rule:nonzero;stroke:none"
         id="path3212" /><path
         d="m 247.234,180.915 c 0,-1.457 -1.074,-2.641 -2.398,-2.641 -1.324,0 -2.398,1.184 -2.398,2.641 0,1.457 1.074,2.64 2.398,2.64 1.324,0 2.398,-1.183 2.398,-2.64 z"
         style="fill:#280b0b;fill-opacity:1;fill-rule:nonzero;stroke:none"
         id="path3214" /><path
         d="m 247.234,155.836 c 0,-1.457 -1.074,-2.64 -2.398,-2.64 -1.324,0 -2.398,1.183 -2.398,2.64 0,1.458 1.074,2.637 2.398,2.637 1.324,0 2.398,-1.179 2.398,-2.637 z"
         style="fill:#280b0b;fill-opacity:1;fill-rule:nonzero;stroke:none"
         id="path3216" /><path
         d="m 247.234,129.844 c 0,-1.457 -1.074,-2.64 -2.398,-2.64 -1.324,0 -2.398,1.183 -2.398,2.64 0,1.457 1.074,2.637 2.398,2.637 1.324,0 2.398,-1.18 2.398,-2.637 z"
         style="fill:#280b0b;fill-opacity:1;fill-rule:nonzero;stroke:none"
         id="path3218" /><path
         d="m 273.223,303.946 c 0,-1.457 -1.075,-2.641 -2.399,-2.641 -1.324,0 -2.398,1.184 -2.398,2.641 0,1.457 1.074,2.64 2.398,2.64 1.324,0 2.399,-1.183 2.399,-2.64 z"
         style="fill:#280b0b;fill-opacity:1;fill-rule:nonzero;stroke:none"
         id="path3220" /><path
         d="m 273.223,277.954 c 0,-1.457 -1.075,-2.637 -2.399,-2.637 -1.324,0 -2.398,1.18 -2.398,2.637 0,1.457 1.074,2.64 2.398,2.64 1.324,0 2.399,-1.183 2.399,-2.64 z"
         style="fill:#280b0b;fill-opacity:1;fill-rule:nonzero;stroke:none"
         id="path3222" /><path
         d="m 273.223,252.876 c 0,-1.457 -1.075,-2.641 -2.399,-2.641 -1.324,0 -2.398,1.184 -2.398,2.641 0,1.457 1.074,2.636 2.398,2.636 1.324,0 2.399,-1.179 2.399,-2.636 z"
         style="fill:#280b0b;fill-opacity:1;fill-rule:nonzero;stroke:none"
         id="path3224" /><path
         d="m 273.223,230.083 c 0,-1.457 -1.075,-2.637 -2.399,-2.637 -1.324,0 -2.398,1.18 -2.398,2.637 0,1.457 1.074,2.64 2.398,2.64 1.324,0 2.399,-1.183 2.399,-2.64 z"
         style="fill:#280b0b;fill-opacity:1;fill-rule:nonzero;stroke:none"
         id="path3226" /><path
         d="m 272.836,205.305 c 0,-1.457 -1.074,-2.636 -2.398,-2.636 -1.325,0 -2.399,1.179 -2.399,2.636 0,1.457 1.074,2.641 2.399,2.641 1.324,0 2.398,-1.184 2.398,-2.641 z"
         style="fill:#280b0b;fill-opacity:1;fill-rule:nonzero;stroke:none"
         id="path3228" /><path
         d="m 272.836,180.915 c 0,-1.457 -1.074,-2.641 -2.398,-2.641 -1.325,0 -2.399,1.184 -2.399,2.641 0,1.457 1.074,2.64 2.399,2.64 1.324,0 2.398,-1.183 2.398,-2.64 z"
         style="fill:#280b0b;fill-opacity:1;fill-rule:nonzero;stroke:none"
         id="path3230" /><path
         d="m 272.836,155.836 c 0,-1.457 -1.074,-2.64 -2.398,-2.64 -1.325,0 -2.399,1.183 -2.399,2.64 0,1.458 1.074,2.637 2.399,2.637 1.324,0 2.398,-1.179 2.398,-2.637 z"
         style="fill:#280b0b;fill-opacity:1;fill-rule:nonzero;stroke:none"
         id="path3232" /><path
         d="m 272.836,129.844 c 0,-1.457 -1.074,-2.64 -2.398,-2.64 -1.325,0 -2.399,1.183 -2.399,2.64 0,1.457 1.074,2.637 2.399,2.637 1.324,0 2.398,-1.18 2.398,-2.637 z"
         style="fill:#280b0b;fill-opacity:1;fill-rule:nonzero;stroke:none"
         id="path3234" /><path
         d="m 298.824,303.946 c 0,-1.457 -1.074,-2.641 -2.398,-2.641 -1.324,0 -2.399,1.184 -2.399,2.641 0,1.457 1.075,2.64 2.399,2.64 1.324,0 2.398,-1.183 2.398,-2.64 z"
         style="fill:#280b0b;fill-opacity:1;fill-rule:nonzero;stroke:none"
         id="path3236" /><path
         d="m 298.824,277.954 c 0,-1.457 -1.074,-2.637 -2.398,-2.637 -1.324,0 -2.399,1.18 -2.399,2.637 0,1.457 1.075,2.64 2.399,2.64 1.324,0 2.398,-1.183 2.398,-2.64 z"
         style="fill:#280b0b;fill-opacity:1;fill-rule:nonzero;stroke:none"
         id="path3238" /><path
         d="m 298.824,252.876 c 0,-1.457 -1.074,-2.641 -2.398,-2.641 -1.324,0 -2.399,1.184 -2.399,2.641 0,1.457 1.075,2.636 2.399,2.636 1.324,0 2.398,-1.179 2.398,-2.636 z"
         style="fill:#280b0b;fill-opacity:1;fill-rule:nonzero;stroke:none"
         id="path3240" /><path
         d="m 298.824,230.083 c 0,-1.457 -1.074,-2.637 -2.398,-2.637 -1.324,0 -2.399,1.18 -2.399,2.637 0,1.457 1.075,2.64 2.399,2.64 1.324,0 2.398,-1.183 2.398,-2.64 z"
         style="fill:#280b0b;fill-opacity:1;fill-rule:nonzero;stroke:none"
         id="path3242" /><path
         d="m 298.434,205.305 c 0,-1.457 -1.071,-2.636 -2.399,-2.636 -1.324,0 -2.398,1.179 -2.398,2.636 0,1.457 1.074,2.641 2.398,2.641 1.328,0 2.399,-1.184 2.399,-2.641 z"
         style="fill:#280b0b;fill-opacity:1;fill-rule:nonzero;stroke:none"
         id="path3244" /><path
         d="m 298.434,180.915 c 0,-1.457 -1.071,-2.641 -2.399,-2.641 -1.324,0 -2.398,1.184 -2.398,2.641 0,1.457 1.074,2.64 2.398,2.64 1.328,0 2.399,-1.183 2.399,-2.64 z"
         style="fill:#280b0b;fill-opacity:1;fill-rule:nonzero;stroke:none"
         id="path3246" /><path
         d="m 298.434,155.836 c 0,-1.457 -1.071,-2.64 -2.399,-2.64 -1.324,0 -2.398,1.183 -2.398,2.64 0,1.458 1.074,2.637 2.398,2.637 1.328,0 2.399,-1.179 2.399,-2.637 z"
         style="fill:#280b0b;fill-opacity:1;fill-rule:nonzero;stroke:none"
         id="path3248" /><path
         d="m 298.434,129.844 c 0,-1.457 -1.071,-2.64 -2.399,-2.64 -1.324,0 -2.398,1.183 -2.398,2.64 0,1.457 1.074,2.637 2.398,2.637 1.328,0 2.399,-1.18 2.399,-2.637 z"
         style="fill:#280b0b;fill-opacity:1;fill-rule:nonzero;stroke:none"
         id="path3250" /><text
         transform="matrix(1,0,0,-1,202.21786,330.12341)"
         id="text3252"><tspan
           style="fill:#000000;fill-opacity:1;fill-rule:nonzero;stroke:none;font-family:DejaVu Sans;font-variant:normal;font-weight:normal;font-size:16;writing-mode:lr;-inkscape-font-specification:DejaVuSans"
           x="0 9.904 20.848"
           y="0"
           sodipodi:role="line"
           id="tspan3254">AVX</tspan><tspan
           style="fill:#000000;fill-opacity:1;fill-rule:nonzero;stroke:none;font-family:DejaVu Sans;font-variant:normal;font-weight:normal;font-size:16;writing-mode:lr;-inkscape-font-specification:DejaVuSans"
           x="-53.718416 -43.606416 -33.494416"
           y="0.0626"
           sodipodi:role="line"
           id="tspan3256">SSE</tspan></text>
</g></g></svg>